HIERARCHY
ROOT pelvis
{
    OFFSET 0.0 93.64073944091797 0.0
    CHANNELS 6 Xposition Yposition Zposition Zrotation Yrotation Xrotation

    JOINT left_hip
    {
        OFFSET -5.923865795135498 -4.9820404052734375 -0.5160064697265625
        CHANNELS 3 Zrotation Yrotation Xrotation

        JOINT left_knee
        {
            OFFSET -6.146185398101807 -40.54372024536133 -5.271518707275391
            CHANNELS 3 Zrotation Yrotation Xrotation

            JOINT left_ankle
            {
                OFFSET 1.0999670028686523 -42.46221160888672 -3.445535659790039
                CHANNELS 3 Zrotation Yrotation Xrotation

                JOINT left_foot
                {
                    OFFSET -5.945172309875488 -4.981842517852783 11.75620174407959
                    CHANNELS 3 Zrotation Yrotation Xrotation

                    End Site
                    {
                        OFFSET 0 0 0
                    }
                }
            }
        }
    }

    JOINT right_hip
    {
        OFFSET 6.179832935333252 -5.0594024658203125 -1.4839138984680176
        CHANNELS 3 Zrotation Yrotation Xrotation

        JOINT right_knee
        {
            OFFSET 6.999098300933838 -40.76092529296875 -4.331271648406982
            CHANNELS 3 Zrotation Yrotation Xrotation

            JOINT right_ankle
            {
                OFFSET -1.4563846588134766 -41.78179931640625 -4.383964538574219
                CHANNELS 3 Zrotation Yrotation Xrotation

                JOINT right_foot
                {
                    OFFSET 5.6139421463012695 -5.553147315979004 12.790332794189453
                    CHANNELS 3 Zrotation Yrotation Xrotation

                    End Site
                    {
                        OFFSET 0 0 0
                    }
                }
            }
        }
    }

    JOINT spine1
    {
        OFFSET 0.4437461495399475 16.73809814453125 -4.683197498321533
        CHANNELS 3 Zrotation Yrotation Xrotation

        JOINT spine2
        {
            OFFSET 0.9789926409721375 12.172080993652344 2.8069684505462646
            CHANNELS 3 Zrotation Yrotation Xrotation

            JOINT spine3
            {
                OFFSET -0.15495991706848145 4.650520324707031 0.6406077146530151
                CHANNELS 3 Zrotation Yrotation Xrotation

                JOINT left_collar
                {
                    OFFSET -8.252729415893555 9.115943908691406 -1.4277211427688599
                    CHANNELS 3 Zrotation Yrotation Xrotation

                    JOINT left_shoulder
                    {
                        OFFSET -11.926380157470703 5.76409912109375 -2.692793369293213
                        CHANNELS 3 Zrotation Yrotation Xrotation

                        JOINT left_elbow
                        {
                            OFFSET -25.01034927368164 -0.9507293701171875 -0.7720041275024414
                            CHANNELS 3 Zrotation Yrotation Xrotation

                            JOINT left_wrist
                            {
                                OFFSET -26.750202178955078 6.2010040283203125 0.09749889373779297
                                CHANNELS 3 Zrotation Yrotation Xrotation

                                End Site
                                {
                                    OFFSET 0 0 0
                                }
                            }
                        }
                    }
                }

                JOINT right_collar
                {
                    OFFSET 7.516000270843506 9.857826232910156 -1.23031485080719
                    CHANNELS 3 Zrotation Yrotation Xrotation

                    JOINT right_shoulder
                    {
                        OFFSET 10.759876251220703 5.242095947265625 -4.059486389160156
                        CHANNELS 3 Zrotation Yrotation Xrotation

                        JOINT right_elbow
                        {
                            OFFSET 25.53045654296875 0.536529541015625 -1.25703763961792
                            CHANNELS 3 Zrotation Yrotation Xrotation

                            JOINT right_wrist
                            {
                                OFFSET 27.510330200195312 5.0978240966796875 -1.1167974472045898
                                CHANNELS 3 Zrotation Yrotation Xrotation

                                End Site
                                {
                                    OFFSET 0 0 0
                                }
                            }
                        }
                    }
                }

                JOINT neck
                {
                    OFFSET -1.505141019821167 21.009071350097656 -2.203017234802246
                    CHANNELS 3 Zrotation Yrotation Xrotation

                    JOINT head
                    {
                        OFFSET 1.0093531608581543 10.223403930664062 7.858963966369629
                        CHANNELS 3 Zrotation Yrotation Xrotation

                        End Site
                        {
                            OFFSET 0 0 0
                        }
                    }
                }
            }
        }
    }

}

MOTION
Frames: 7
Frame Time: 0.050000
0.710290 92.601868 -0.975146 0.000000 0.000000 -0.000000 -0.376593 -0.664022 -1.633293 1.194622 0.955160 1.420704 -7.017675 -4.234714 -1.635209 0.000000 0.000000 -0.000000 1.145902 1.307637 -0.128322 -1.669606 -1.783843 -1.304512 10.288404 0.220899 2.268777 0.000000 0.000000 -0.000000 -2.988321 2.440641 1.568712 1.546426 -1.383441 -0.697362 0.000000 0.000000 -0.000000 -0.529248 -29.947694 23.750217 -132.699137 -41.352573 57.367482 34.958081 -15.375022 -31.906775 0.000000 0.000000 -0.000000 1.119318 28.036818 24.558013 163.697725 42.803331 67.996240 -68.377403 18.424399 -5.299078 0.000000 0.000000 -0.000000 -1.852297 -0.317038 -14.659187 0.000000 0.000000 -0.000000
0.675678 92.559082 -0.777391 0.000000 0.000000 -0.000000 -0.231709 -0.476294 -1.450474 0.978032 0.760910 1.432887 -6.501086 -4.395148 -1.745594 0.000000 0.000000 -0.000000 1.066772 1.194249 0.036462 -1.559177 -1.705848 -1.290726 10.157003 0.286794 2.339753 0.000000 0.000000 -0.000000 -2.737624 2.252938 1.723407 1.257991 -1.118687 -1.657888 0.000000 0.000000 -0.000000 -3.138960 -28.258952 25.524614 -125.637370 -36.683830 61.686510 31.107495 -14.278269 -31.544478 0.000000 0.000000 -0.000000 3.290347 26.602479 26.598402 156.704932 37.724185 72.541465 -61.564449 19.246471 -6.110580 0.000000 0.000000 -0.000000 -1.752516 -0.421783 -15.072062 0.000000 0.000000 -0.000000
0.651805 92.530579 -0.613947 0.000000 0.000000 -0.000000 -0.098940 -0.310625 -1.333878 0.802701 0.597136 1.458723 -6.108370 -4.509986 -1.832378 0.000000 0.000000 -0.000000 0.996290 1.098889 0.142760 -1.422735 -1.585413 -1.240634 9.607540 0.289336 2.295948 0.000000 0.000000 -0.000000 -2.425928 2.019214 1.876307 1.013266 -0.867579 -2.397903 0.000000 0.000000 -0.000000 -5.071676 -26.938451 26.732175 -121.093772 -33.109186 64.180663 28.970738 -13.527283 -31.057842 0.000000 0.000000 -0.000000 5.015534 25.408886 28.081603 152.316706 33.763220 75.353665 -58.070331 19.965738 -6.479404 0.000000 0.000000 -0.000000 -1.676353 -0.503407 -15.396080 0.000000 0.000000 -0.000000
0.639287 92.518692 -0.490016 0.000000 0.000000 -0.000000 0.009080 -0.182624 -1.288386 0.680900 0.476349 1.506934 -5.907433 -4.592841 -1.879615 0.000000 0.000000 -0.000000 0.933416 1.022110 0.181727 -1.309855 -1.474379 -1.153561 9.064361 0.275342 2.237626 0.000000 0.000000 -0.000000 -2.155189 1.817483 2.015119 0.868577 -0.697957 -2.875804 0.000000 0.000000 -0.000000 -6.296593 -26.139973 27.530431 -118.749569 -30.771816 65.526298 27.972749 -13.149130 -30.593294 0.000000 0.000000 -0.000000 6.178110 24.645121 29.100299 149.924768 31.111644 76.885548 -56.559171 20.539566 -6.574202 0.000000 0.000000 -0.000000 -1.625927 -0.555054 -15.580996 0.000000 0.000000 -0.000000
0.636307 92.503479 -0.396113 0.000000 0.000000 -0.000000 0.068510 -0.113518 -1.272868 0.616902 0.410709 1.562447 -5.892961 -4.639131 -1.848765 0.000000 0.000000 -0.000000 0.891414 0.971582 0.202391 -1.244513 -1.409559 -1.098735 8.774306 0.290668 2.187407 0.000000 0.000000 -0.000000 -1.959402 1.669997 2.072225 0.774970 -0.586291 -3.096993 0.000000 0.000000 -0.000000 -7.026779 -25.712989 28.053771 -117.651556 -29.339124 66.258034 27.574379 -13.000045 -30.229416 0.000000 0.000000 -0.000000 6.870755 24.218276 29.728924 148.684417 29.509451 77.686916 -56.335687 20.976087 -6.419406 0.000000 0.000000 -0.000000 -1.539065 -0.623817 -15.682790 0.000000 0.000000 -0.000000
0.640174 92.489944 -0.320298 0.000000 0.000000 -0.000000 0.100405 -0.079254 -1.283518 0.576190 0.364216 1.632539 -5.987878 -4.655646 -1.756144 0.000000 0.000000 -0.000000 0.872308 0.949915 0.203199 -1.210822 -1.373813 -1.049797 8.548021 0.297098 2.144667 0.000000 0.000000 -0.000000 -1.843755 1.582604 2.098254 0.731673 -0.530953 -3.187710 0.000000 0.000000 -0.000000 -7.450340 -25.504599 28.396185 -117.033957 -28.491504 66.597859 27.305903 -12.875034 -30.014441 0.000000 0.000000 -0.000000 7.254563 23.997494 30.091733 148.031600 28.611274 78.077500 -56.313315 21.215093 -6.298709 0.000000 0.000000 -0.000000 -1.489340 -0.660239 -15.709519 0.000000 0.000000 -0.000000
0.647439 92.480469 -0.255694 0.000000 0.000000 -0.000000 0.123024 -0.053992 -1.284620 0.530186 0.313634 1.680977 -5.955526 -4.642348 -1.688511 0.000000 0.000000 -0.000000 0.846644 0.920456 0.206547 -1.184599 -1.346868 -1.014725 8.381849 0.307974 2.101219 0.000000 0.000000 -0.000000 -1.825427 1.570146 2.128682 0.756002 -0.546539 -3.189708 0.000000 0.000000 -0.000000 -7.720539 -25.431152 28.675157 -116.710665 -27.878096 66.776332 27.274827 -12.841694 -29.823515 0.000000 0.000000 -0.000000 7.553725 23.782531 30.322642 147.365708 28.010565 78.307975 -56.178951 21.391186 -6.321875 0.000000 0.000000 -0.000000 -1.462160 -0.673719 -15.657758 0.000000 0.000000 -0.000000
